<svg xmlns="http://www.w3.org/2000/svg" xmlns:xlink="http://www.w3.org/1999/xlink" width="25" height="25" viewBox="0 0 25 25">
  <defs>
    <clipPath id="clip-path">
      <rect width="25" height="25" fill="none"/>
    </clipPath>
  </defs>
  <g id="Instagram_1" data-name="Instagram – 1" clip-path="url(#clip-path)">
    <path id="Path_3" data-name="Path 3" d="M12.5,2.222a38.328,38.328,0,0,1,5,.139,6.442,6.442,0,0,1,2.361.417,4.878,4.878,0,0,1,2.361,2.361A6.442,6.442,0,0,1,22.639,7.5c0,1.25.139,1.667.139,5a38.328,38.328,0,0,1-.139,5,6.442,6.442,0,0,1-.417,2.361,4.878,4.878,0,0,1-2.361,2.361,6.442,6.442,0,0,1-2.361.417c-1.25,0-1.667.139-5,.139a38.328,38.328,0,0,1-5-.139,6.442,6.442,0,0,1-2.361-.417,4.878,4.878,0,0,1-2.361-2.361A6.442,6.442,0,0,1,2.361,17.5c0-1.25-.139-1.667-.139-5a38.328,38.328,0,0,1,.139-5,6.442,6.442,0,0,1,.417-2.361A4.988,4.988,0,0,1,3.75,3.75a2.348,2.348,0,0,1,1.389-.972A6.442,6.442,0,0,1,7.5,2.361a38.328,38.328,0,0,1,5-.139M12.5,0A41.038,41.038,0,0,0,7.361.139,8.574,8.574,0,0,0,4.306.694,5.437,5.437,0,0,0,2.083,2.083,5.437,5.437,0,0,0,.694,4.306,6.328,6.328,0,0,0,.139,7.361,41.038,41.038,0,0,0,0,12.5a41.038,41.038,0,0,0,.139,5.139,8.574,8.574,0,0,0,.556,3.056,5.437,5.437,0,0,0,1.389,2.222,5.437,5.437,0,0,0,2.222,1.389,8.574,8.574,0,0,0,3.056.556A41.038,41.038,0,0,0,12.5,25a41.038,41.038,0,0,0,5.139-.139,8.575,8.575,0,0,0,3.056-.556,5.827,5.827,0,0,0,3.611-3.611,8.574,8.574,0,0,0,.556-3.056c0-1.389.139-1.806.139-5.139a41.038,41.038,0,0,0-.139-5.139,8.575,8.575,0,0,0-.556-3.056,5.437,5.437,0,0,0-1.389-2.222A5.437,5.437,0,0,0,20.694.694,8.574,8.574,0,0,0,17.639.139,41.038,41.038,0,0,0,12.5,0m0,6.111A6.286,6.286,0,0,0,6.111,12.5,6.389,6.389,0,1,0,12.5,6.111m0,10.556A4.092,4.092,0,0,1,8.333,12.5,4.092,4.092,0,0,1,12.5,8.333,4.092,4.092,0,0,1,16.667,12.5,4.092,4.092,0,0,1,12.5,16.667M19.167,4.306a1.528,1.528,0,1,0,1.528,1.528,1.541,1.541,0,0,0-1.528-1.528" fill="#42495b" fill-rule="evenodd"/>
  </g>
</svg>
