<svg xmlns="http://www.w3.org/2000/svg" width="237.169" height="91.545" viewBox="0 0 237.169 91.545">
  <g id="Group_148" data-name="Group 148" transform="translate(-837 -84.455)">
    <g id="Group_146" data-name="Group 146" transform="translate(-1832 637)">
      <text id="Cookies" transform="translate(2754 -489)" fill="#c19c9c" font-size="70" font-family="GreatVibes-Regular, Great Vibes"><tspan x="-84.665" y="0">Cookies</tspan></text>
      <text id="Icing" transform="translate(2830 -527)" fill="#42495b" font-size="30" font-family="Rockwell-Regular, Rockwell"><tspan x="-37.756" y="0">Icing</tspan></text>
    </g>
    <g id="Group_147" data-name="Group 147" transform="translate(905.637 -694.755) rotate(76)">
      <path id="Path_241" data-name="Path 241" d="M2312.113-1029.892s-2.955,9.86,1.734,15.386,30.158,20.756,30.158,20.756l1.347-1.086s-10.523-28.044-14.5-33.035-14.534-5.2-14.534-5.2Z" transform="translate(-1494.926 1085.224)" fill="#f9e7e7" stroke="#707070" stroke-width="1"/>
      <path id="Path_242" data-name="Path 242" d="M2157.017-1188.4l1.664-17.335s-3.983-3.96-8.058-2.161-3.249,5.174-7.494,7.944-7.871.615-10.5,3.883.607,8.5.607,8.5l19.607,2.473Z" transform="translate(-1335.767 1240.583)" fill="#f9e7e7" stroke="#707070" stroke-width="1"/>
      <g id="Path_243" data-name="Path 243" transform="matrix(0.53, -0.848, 0.848, 0.53, 805.893, 48.213)" fill="none">
        <path d="M.8,0c.592-.145.908,3.109.908,6.156A47.985,47.985,0,0,1,.8,13.694,54.224,54.224,0,0,1,0,6.16C0,3.113.207.15.8,0Z" stroke="none"/>
        <path d="M 0.8372747302055359 -3.814697265625e-06 C 1.40511167049408 -3.814697265625e-06 1.707714796066284 3.179059028625488 1.707714796066284 6.160292625427246 C 1.707714796066284 9.207372665405273 0.799224853515625 13.69360256195068 0.799224853515625 13.69360256195068 C 0.799224853515625 13.69360256195068 -5.125999450683594e-06 9.207372665405273 -5.125999450683594e-06 6.160292625427246 C -5.125999450683594e-06 3.113222122192383 0.2069048881530762 0.1500329971313477 0.7992348074913025 0.004693031311035156 C 0.8120329976081848 0.001552581787109375 0.8247348666191101 -3.814697265625e-06 0.8372747302055359 -3.814697265625e-06 Z" stroke="none" fill="#707070"/>
      </g>
      <g id="Path_244" data-name="Path 244" transform="matrix(0.809, -0.588, 0.588, 0.809, 809.263, 41.606)" fill="none">
        <path d="M.8.005c.592-.168.908,3.595.908,7.119A63.758,63.758,0,0,1,.8,15.836,72.153,72.153,0,0,1,0,7.124C0,3.6.207.174.8.005Z" stroke="none"/>
        <path d="M 0.8372736573219299 -1.9073486328125e-06 C 1.40511953830719 -1.9073486328125e-06 1.70771336555481 3.676516532897949 1.70771336555481 7.124258041381836 C 1.70771336555481 10.64813804626465 0.7992234230041504 15.83637809753418 0.7992234230041504 15.83637809753418 C 0.7992234230041504 15.83637809753418 -6.556510925292969e-06 10.64814758300781 -6.556510925292969e-06 7.124258041381836 C -6.556510925292969e-06 3.600378036499023 0.2069034576416016 0.1735086441040039 0.7992333769798279 0.005428314208984375 C 0.8120317459106445 0.001796722412109375 0.8247336149215698 -1.9073486328125e-06 0.8372736573219299 -1.9073486328125e-06 Z" stroke="none" fill="#707070"/>
      </g>
      <g id="Path_245" data-name="Path 245" transform="translate(815.264 40.198) rotate(-20)" fill="none">
        <path d="M.8,0c.592-.145.908,3.109.908,6.156A47.985,47.985,0,0,1,.8,13.694,54.224,54.224,0,0,1,0,6.16C0,3.113.207.15.8,0Z" stroke="none"/>
        <path d="M 0.8372775912284851 2.86102294921875e-06 C 1.405114531517029 2.86102294921875e-06 1.707715153694153 3.179056167602539 1.707715153694153 6.160299301147461 C 1.707715153694153 9.207379341125488 0.7992351651191711 13.69361877441406 0.7992351651191711 13.69361877441406 C 0.7992351651191711 13.69361877441406 -4.76837158203125e-06 9.207379341125488 -4.76837158203125e-06 6.160299301147461 C -4.76837158203125e-06 3.113228797912598 0.2069052457809448 0.150029182434082 0.7992351651191711 0.00469970703125 C 0.8120333552360535 0.001559257507324219 0.8247376680374146 2.86102294921875e-06 0.8372775912284851 2.86102294921875e-06 Z" stroke="none" fill="#707070"/>
      </g>
      <g id="Path_245-2" data-name="Path 245" transform="translate(819.328 61.299) rotate(170)" fill="none">
        <path d="M.474,0c.351-.07.538,1.5.538,2.974a19.149,19.149,0,0,1-.538,3.64A21.577,21.577,0,0,1,0,2.977C0,1.5.123.072.474,0Z" stroke="none"/>
        <path d="M 0.4962615370750427 -2.86102294921875e-06 C 0.8328150510787964 -2.86102294921875e-06 1.012175917625427 1.536067008972168 1.012175917625427 2.976546049118042 C 1.012175917625427 4.448836326599121 0.4737058877944946 6.616506099700928 0.4737058877944946 6.616506099700928 C 0.4737058877944946 6.616506099700928 -4.172325134277344e-06 4.448836326599121 -4.172325134277344e-06 2.976546049118042 C -4.172325134277344e-06 1.504256248474121 0.1226359009742737 0.07249593734741211 0.4737159013748169 0.00226593017578125 C 0.4813012480735779 0.0007486343383789062 0.4888292551040649 -2.86102294921875e-06 0.4962615370750427 -2.86102294921875e-06 Z" stroke="none" fill="#707070"/>
      </g>
      <g id="Path_246" data-name="Path 246" transform="translate(827.2 54.577) rotate(112)" fill="none">
        <path d="M.474,0c.351-.07.538,1.5.538,2.974a19.149,19.149,0,0,1-.538,3.64A21.577,21.577,0,0,1,0,2.977C0,1.5.123.072.474,0Z" stroke="none"/>
        <path d="M 0.4962650537490845 2.384185791015625e-06 C 0.8328275680541992 2.384185791015625e-06 1.012175679206848 1.536062717437744 1.012175679206848 2.976541757583618 C 1.012175679206848 4.448831558227539 0.4737057089805603 6.616501808166504 0.4737057089805603 6.616501808166504 C 0.4737057089805603 6.616501808166504 -4.291534423828125e-06 4.448831558227539 -4.291534423828125e-06 2.976541757583618 C -4.291534423828125e-06 1.504251956939697 0.1226357221603394 0.07249164581298828 0.4737157225608826 0.002271652221679688 C 0.4813013076782227 0.0007543563842773438 0.4888325333595276 2.384185791015625e-06 0.4962650537490845 2.384185791015625e-06 Z" stroke="none" fill="#707070"/>
      </g>
      <g id="Path_247" data-name="Path 247" transform="matrix(-0.616, 0.788, -0.788, -0.616, 825.497, 56.923)" fill="none">
        <path d="M.474,0c.351-.07.538,1.5.538,2.974a19.149,19.149,0,0,1-.538,3.64A21.577,21.577,0,0,1,0,2.977C0,1.5.123.072.474,0Z" stroke="none"/>
        <path d="M 0.4962642192840576 3.337860107421875e-06 C 0.8328267335891724 3.337860107421875e-06 1.012174844741821 1.536063671112061 1.012174844741821 2.976542711257935 C 1.012174844741821 4.448832511901855 0.4737048745155334 6.61650276184082 0.4737048745155334 6.61650276184082 C 0.4737048745155334 6.61650276184082 -5.125999450683594e-06 4.448832511901855 -5.125999450683594e-06 2.976542711257935 C -5.125999450683594e-06 1.504252910614014 0.1226348876953125 0.07249259948730469 0.4737148880958557 0.002272605895996094 C 0.4813004732131958 0.00075531005859375 0.4888316988945007 3.337860107421875e-06 0.4962642192840576 3.337860107421875e-06 Z" stroke="none" fill="#707070"/>
      </g>
      <g id="Path_248" data-name="Path 248" transform="translate(822.871 59.263) rotate(147)" fill="none">
        <path d="M.474,0c.351-.07.538,1.5.538,2.974a19.149,19.149,0,0,1-.538,3.64A21.577,21.577,0,0,1,0,2.977C0,1.5.123.072.474,0Z" stroke="none"/>
        <path d="M 0.4962610006332397 -4.76837158203125e-06 C 0.8328235149383545 -4.76837158203125e-06 1.012174725532532 1.536065101623535 1.012174725532532 2.976544141769409 C 1.012174725532532 4.448834419250488 0.4737047553062439 6.616504192352295 0.4737047553062439 6.616504192352295 C 0.4737047553062439 6.616504192352295 -5.245208740234375e-06 4.448834419250488 -5.245208740234375e-06 2.976544141769409 C -5.245208740234375e-06 1.504254341125488 0.1226347684860229 0.0724940299987793 0.4737147688865662 0.002264022827148438 C 0.4813003540039062 0.0007467269897460938 0.4888285398483276 -4.76837158203125e-06 0.4962610006332397 -4.76837158203125e-06 Z" stroke="none" fill="#707070"/>
      </g>
      <path id="Path_249" data-name="Path 249" d="M2599.978-695.839l1.491.852.389-.31-.586-1.622Z" transform="translate(-1750.858 787.314)" fill="#42495b" stroke="#42495b" stroke-width="1"/>
    </g>
  </g>
</svg>
